# xmcd
#
# Track frame offsets:
# 150
# 17191
# 33260
# 52167
# 73940
# 83962
# 94588
# 113057
# 123231
# 136976
# 146573
# 156758
# 166500
# 181529
# 193255
# 205011
#
# Disc length: 2904 seconds
#
#
# Revision: 1
# Processed by: cddbd v1.5.1PL0 Copyright (c) Steve Scherf et al.
# Submitted via: FreeRIP 2.941 
#
DISCID=d50b5610
DTITLE=Various Artist - Country Classics - Country Songs 2/3
DYEAR=1900
DGENRE=Country
TTITLE0=Lynn Anderson - Blue Bayou
TTITLE1=Don Gibson - Green, green grass of Home
TTITLE2=John Denver - Rocky Mountain high
TTITLE3=Willie Nelson - City of New Orleans
TTITLE4=Jim Reeves - He'll Heaven to Go
TTITLE5=Dolly Parton - It wasn't god, who made honky tonk Angels
TTITLE6=John Denver - Tenderly calling
TTITLE7=Anne Murray - Some Birds
TTITLE8=B.Fairchild and B. Owens - Crazy Love
TTITLE9=Johnny Cash - Why me Lord
TTITLE10=Billy Joe Spears - It makes no Difference now
TTITLE11=Hank Locklin - Please help me I'm Falling
TTITLE12=Lynn Anderson - Desperado
TTITLE13=Wanda Jackson - Sweet Dreams
TTITLE14=Billy Joe Spears - Easy the want in me
TTITLE15=Charley Pride - Help me make it through the night
EXTD=
EXTT0=
EXTT1=
EXTT2=
EXTT3=
EXTT4=
EXTT5=
EXTT6=
EXTT7=
EXTT8=
EXTT9=
EXTT10=
EXTT11=
EXTT12=
EXTT13=
EXTT14=
EXTT15=
PLAYORDER=
